<?xml version="1.0" encoding="UTF-8" standalone="no"?>
<!DOCTYPE svg PUBLIC "-//W3C//DTD SVG 1.0//EN"
 "http://www.w3.org/TR/2001/REC-SVG-20010904/DTD/svg10.dtd">
<!-- Generated by dot version 2.2.1 (Fri Sep 30 13:22:44 UTC 2005)
     For user: (ammonc) Ammon Christiansen,,,   Title: G    Pages: 1 -->
<svg width="1644pt" height="472pt"
 viewBox = "-1 -1 1643 471"
 xmlns="http://www.w3.org/2000/svg">
<g id="graph0" class="graph" style="font-family:Times-Roman;font-size:14.00;">
<title>G</title>
<g id="graph2" class="cluster"><title>cluster_controllers</title>
<polygon style="fill:white;stroke:none;" points="13,448 1629,448 1629,12 13,12 13,448"/>
<text text-anchor="middle" style="font-family:Verdana;" x="821" y="29">Controllers</text>
</g>
<g id="node2" class="node"><title>SortableElementsSandboxController</title>
<polygon style="fill:#ffe8e8;stroke:black;" points="21,314 203,314 203,242 21,242 21,314"/>
<text text-anchor="middle" style="font-family:Verdana;font-size:9.00;" x="112" y="254">SortableElementsSandboxController</text>
<polyline style="fill:none;stroke:black;" points="21,260 203,260 "/>
<text text-anchor="middle" style="font-family:Verdana;font-size:9.00;" x="112" y="272">order</text>
<polyline style="fill:none;stroke:black;" points="21,278 203,278 "/>
<text text-anchor="middle" style="font-family:Verdana;font-size:9.00;" x="112" y="290">index</text>
<polyline style="fill:none;stroke:black;" points="21,296 203,296 "/>
<text text-anchor="middle" style="font-family:Verdana;font-size:9.00;" x="112" y="308">sortable_elements</text>
</g>
<g id="node3" class="node"><title>ApplicationController</title>
<polygon style="fill:#ffe8e8;stroke:black;" points="777,80 891,80 891,44 777,44 777,80"/>
<text text-anchor="middle" style="font-family:Verdana;font-size:9.00;" x="834" y="56">ApplicationController</text>
<polyline style="fill:none;stroke:black;" points="777,62 891,62 "/>
<text text-anchor="middle" style="font-family:Verdana;font-size:9.00;" x="834" y="74">do_recipe_search</text>
</g>
<g id="edge3" class="edge"><title>ApplicationController&#45;&gt;SortableElementsSandboxController</title>
<path style="fill:none;stroke:black;" d="M777,80C650,104 311,49 203,116 162,142 137,194 124,232"/>
<polygon style="fill:black;stroke:black;" points="127,233 121,242 121,231 127,233"/>
</g>
<g id="node5" class="node"><title>UnitConversionEditorController</title>
<polygon style="fill:#ffe8e8;stroke:black;" points="221,332 380,332 380,224 221,224 221,332"/>
<text text-anchor="middle" style="font-family:Verdana;font-size:9.00;" x="300" y="236">UnitConversionEditorController</text>
<polyline style="fill:none;stroke:black;" points="221,242 380,242 "/>
<text text-anchor="middle" style="font-family:Verdana;font-size:9.00;" x="300" y="254">list</text>
<polyline style="fill:none;stroke:black;" points="221,260 380,260 "/>
<text text-anchor="middle" style="font-family:Verdana;font-size:9.00;" x="300" y="272">create</text>
<polyline style="fill:none;stroke:black;" points="221,278 380,278 "/>
<text text-anchor="middle" style="font-family:Verdana;font-size:9.00;" x="300" y="290">delete</text>
<polyline style="fill:none;stroke:black;" points="221,296 380,296 "/>
<text text-anchor="middle" style="font-family:Verdana;font-size:9.00;" x="300" y="308">index</text>
<polyline style="fill:none;stroke:black;" points="221,314 380,314 "/>
<text text-anchor="middle" style="font-family:Verdana;font-size:9.00;" x="300" y="326">update</text>
</g>
<g id="edge5" class="edge"><title>ApplicationController&#45;&gt;UnitConversionEditorController</title>
<path style="fill:none;stroke:black;" d="M777,80C690,98 453,66 380,116 346,139 327,179 315,214"/>
<polygon style="fill:black;stroke:black;" points="318,215 312,224 312,213 318,215"/>
</g>
<g id="node7" class="node"><title>UserAccountController</title>
<polygon style="fill:#ffe8e8;stroke:black;" points="397,332 516,332 516,224 397,224 397,332"/>
<text text-anchor="middle" style="font-family:Verdana;font-size:9.00;" x="456" y="236">UserAccountController</text>
<polyline style="fill:none;stroke:black;" points="397,242 516,242 "/>
<text text-anchor="middle" style="font-family:Verdana;font-size:9.00;" x="456" y="254">welcome</text>
<polyline style="fill:none;stroke:black;" points="397,260 516,260 "/>
<text text-anchor="middle" style="font-family:Verdana;font-size:9.00;" x="456" y="272">delete</text>
<polyline style="fill:none;stroke:black;" points="397,278 516,278 "/>
<text text-anchor="middle" style="font-family:Verdana;font-size:9.00;" x="456" y="290">logout</text>
<polyline style="fill:none;stroke:black;" points="397,296 516,296 "/>
<text text-anchor="middle" style="font-family:Verdana;font-size:9.00;" x="456" y="308">signup</text>
<polyline style="fill:none;stroke:black;" points="397,314 516,314 "/>
<text text-anchor="middle" style="font-family:Verdana;font-size:9.00;" x="456" y="326">login</text>
</g>
<g id="edge7" class="edge"><title>ApplicationController&#45;&gt;UserAccountController</title>
<path style="fill:none;stroke:black;" d="M777,80C718,93 561,80 516,116 487,141 472,180 464,214"/>
<polygon style="fill:black;stroke:black;" points="467,215 462,224 461,214 467,215"/>
</g>
<g id="node9" class="node"><title>DragNDropSandboxController</title>
<polygon style="fill:#ffe8e8;stroke:black;" points="533,332 755,332 755,224 533,224 533,332"/>
<text text-anchor="middle" style="font-family:Verdana;font-size:9.00;" x="644" y="236">DragNDropSandboxController</text>
<polyline style="fill:none;stroke:black;" points="533,242 755,242 "/>
<text text-anchor="middle" style="font-family:Verdana;font-size:9.00;" x="644" y="254">schedule_meal_day_and_week</text>
<polyline style="fill:none;stroke:black;" points="533,260 755,260 "/>
<text text-anchor="middle" style="font-family:Verdana;font-size:9.00;" x="644" y="272">unschedule_meal_day_and_week</text>
<polyline style="fill:none;stroke:black;" points="533,278 755,278 "/>
<text text-anchor="middle" style="font-family:Verdana;font-size:9.00;" x="644" y="290">drag_n_drop_weekly_menu_planner_sandbox</text>
<polyline style="fill:none;stroke:black;" points="533,296 755,296 "/>
<text text-anchor="middle" style="font-family:Verdana;font-size:9.00;" x="644" y="308">index</text>
<polyline style="fill:none;stroke:black;" points="533,314 755,314 "/>
<text text-anchor="middle" style="font-family:Verdana;font-size:9.00;" x="644" y="326">heidi</text>
</g>
<g id="edge9" class="edge"><title>ApplicationController&#45;&gt;DragNDropSandboxController</title>
<path style="fill:none;stroke:black;" d="M802,80C787,90 769,102 755,116 726,145 699,183 679,215"/>
<polygon style="fill:black;stroke:black;" points="682,217 674,224 676,214 682,217"/>
</g>
<g id="node11" class="node"><title>RecipeBoxRjsController</title>
<polygon style="fill:#ffe8e8;stroke:black;" points="773,386 895,386 895,170 773,170 773,386"/>
<text text-anchor="middle" style="font-family:Verdana;font-size:9.00;" x="834" y="182">RecipeBoxRjsController</text>
<polyline style="fill:none;stroke:black;" points="773,188 895,188 "/>
<text text-anchor="middle" style="font-family:Verdana;font-size:9.00;" x="834" y="200">component</text>
<polyline style="fill:none;stroke:black;" points="773,206 895,206 "/>
<text text-anchor="middle" style="font-family:Verdana;font-size:9.00;" x="834" y="218">list</text>
<polyline style="fill:none;stroke:black;" points="773,224 895,224 "/>
<text text-anchor="middle" style="font-family:Verdana;font-size:9.00;" x="834" y="236">create</text>
<polyline style="fill:none;stroke:black;" points="773,242 895,242 "/>
<text text-anchor="middle" style="font-family:Verdana;font-size:9.00;" x="834" y="254">index</text>
<polyline style="fill:none;stroke:black;" points="773,260 895,260 "/>
<text text-anchor="middle" style="font-family:Verdana;font-size:9.00;" x="834" y="272">component_update</text>
<polyline style="fill:none;stroke:black;" points="773,278 895,278 "/>
<text text-anchor="middle" style="font-family:Verdana;font-size:9.00;" x="834" y="290">new</text>
<polyline style="fill:none;stroke:black;" points="773,296 895,296 "/>
<text text-anchor="middle" style="font-family:Verdana;font-size:9.00;" x="834" y="308">edit</text>
<polyline style="fill:none;stroke:black;" points="773,314 895,314 "/>
<text text-anchor="middle" style="font-family:Verdana;font-size:9.00;" x="834" y="326">destroy</text>
<polyline style="fill:none;stroke:black;" points="773,332 895,332 "/>
<text text-anchor="middle" style="font-family:Verdana;font-size:9.00;" x="834" y="344">update</text>
<polyline style="fill:none;stroke:black;" points="773,350 895,350 "/>
<text text-anchor="middle" style="font-family:Verdana;font-size:9.00;" x="834" y="362">return_to_main</text>
<polyline style="fill:none;stroke:black;" points="773,368 895,368 "/>
<text text-anchor="middle" style="font-family:Verdana;font-size:9.00;" x="834" y="380">cancel</text>
</g>
<g id="edge11" class="edge"><title>ApplicationController&#45;&gt;RecipeBoxRjsController</title>
<path style="fill:none;stroke:black;" d="M834,80C834,98 834,128 834,160"/>
<polygon style="fill:black;stroke:black;" points="838,160 834,170 831,160 838,160"/>
</g>
<g id="node13" class="node"><title>AutoCompleteSandboxController</title>
<polygon style="fill:#ffe8e8;stroke:black;" points="913,314 1083,314 1083,242 913,242 913,314"/>
<text text-anchor="middle" style="font-family:Verdana;font-size:9.00;" x="998" y="254">AutoCompleteSandboxController</text>
<polyline style="fill:none;stroke:black;" points="913,260 1083,260 "/>
<text text-anchor="middle" style="font-family:Verdana;font-size:9.00;" x="998" y="272">autocompleted_sandbox</text>
<polyline style="fill:none;stroke:black;" points="913,278 1083,278 "/>
<text text-anchor="middle" style="font-family:Verdana;font-size:9.00;" x="998" y="290">index</text>
<polyline style="fill:none;stroke:black;" points="913,296 1083,296 "/>
<text text-anchor="middle" style="font-family:Verdana;font-size:9.00;" x="998" y="308">auto_complete_for_contact_name</text>
</g>
<g id="edge13" class="edge"><title>ApplicationController&#45;&gt;AutoCompleteSandboxController</title>
<path style="fill:none;stroke:black;" d="M867,80C882,90 900,102 913,116 943,151 967,198 981,233"/>
<polygon style="fill:black;stroke:black;" points="984,231 985,242 978,234 984,231"/>
</g>
<g id="node15" class="node"><title>RecipeBoxController</title>
<polygon style="fill:#ffe8e8;stroke:black;" points="1101,440 1283,440 1283,116 1101,116 1101,440"/>
<text text-anchor="middle" style="font-family:Verdana;font-size:9.00;" x="1192" y="128">RecipeBoxController</text>
<polyline style="fill:none;stroke:black;" points="1101,134 1283,134 "/>
<text text-anchor="middle" style="font-family:Verdana;font-size:9.00;" x="1192" y="146">add_unit</text>
<polyline style="fill:none;stroke:black;" points="1101,152 1283,152 "/>
<text text-anchor="middle" style="font-family:Verdana;font-size:9.00;" x="1192" y="164">add_ingredient</text>
<polyline style="fill:none;stroke:black;" points="1101,170 1283,170 "/>
<text text-anchor="middle" style="font-family:Verdana;font-size:9.00;" x="1192" y="182">delete_ingredient</text>
<polyline style="fill:none;stroke:black;" points="1101,188 1283,188 "/>
<text text-anchor="middle" style="font-family:Verdana;font-size:9.00;" x="1192" y="200">list</text>
<polyline style="fill:none;stroke:black;" points="1101,206 1283,206 "/>
<text text-anchor="middle" style="font-family:Verdana;font-size:9.00;" x="1192" y="218">create</text>
<polyline style="fill:none;stroke:black;" points="1101,224 1283,224 "/>
<text text-anchor="middle" style="font-family:Verdana;font-size:9.00;" x="1192" y="236">update_ingredient</text>
<polyline style="fill:none;stroke:black;" points="1101,242 1283,242 "/>
<text text-anchor="middle" style="font-family:Verdana;font-size:9.00;" x="1192" y="254">search_recipes_sandbox</text>
<polyline style="fill:none;stroke:black;" points="1101,260 1283,260 "/>
<text text-anchor="middle" style="font-family:Verdana;font-size:9.00;" x="1192" y="272">show</text>
<polyline style="fill:none;stroke:black;" points="1101,278 1283,278 "/>
<text text-anchor="middle" style="font-family:Verdana;font-size:9.00;" x="1192" y="290">create_ingredient</text>
<polyline style="fill:none;stroke:black;" points="1101,296 1283,296 "/>
<text text-anchor="middle" style="font-family:Verdana;font-size:9.00;" x="1192" y="308">index</text>
<polyline style="fill:none;stroke:black;" points="1101,314 1283,314 "/>
<text text-anchor="middle" style="font-family:Verdana;font-size:9.00;" x="1192" y="326">new</text>
<polyline style="fill:none;stroke:black;" points="1101,332 1283,332 "/>
<text text-anchor="middle" style="font-family:Verdana;font-size:9.00;" x="1192" y="344">edit</text>
<polyline style="fill:none;stroke:black;" points="1101,350 1283,350 "/>
<text text-anchor="middle" style="font-family:Verdana;font-size:9.00;" x="1192" y="362">destroy</text>
<polyline style="fill:none;stroke:black;" points="1101,368 1283,368 "/>
<text text-anchor="middle" style="font-family:Verdana;font-size:9.00;" x="1192" y="380">update</text>
<polyline style="fill:none;stroke:black;" points="1101,386 1283,386 "/>
<text text-anchor="middle" style="font-family:Verdana;font-size:9.00;" x="1192" y="398">add_ingredient_category</text>
<polyline style="fill:none;stroke:black;" points="1101,404 1283,404 "/>
<text text-anchor="middle" style="font-family:Verdana;font-size:9.00;" x="1192" y="416">edit_ingredient</text>
<polyline style="fill:none;stroke:black;" points="1101,422 1283,422 "/>
<text text-anchor="middle" style="font-family:Verdana;font-size:9.00;" x="1192" y="434">auto_complete_for_ingredient_name</text>
</g>
<g id="edge15" class="edge"><title>ApplicationController&#45;&gt;RecipeBoxController</title>
<path style="fill:none;stroke:black;" d="M891,80C980,102 1020,65 1092,110"/>
<polygon style="fill:black;stroke:black;" points="1095,108 1101,116 1091,113 1095,108"/>
</g>
<g id="node17" class="node"><title>ShoppingListController</title>
<polygon style="fill:#ffe8e8;stroke:black;" points="1301,305 1422,305 1422,251 1301,251 1301,305"/>
<text text-anchor="middle" style="font-family:Verdana;font-size:9.00;" x="1361" y="263">ShoppingListController</text>
<polyline style="fill:none;stroke:black;" points="1301,269 1422,269 "/>
<text text-anchor="middle" style="font-family:Verdana;font-size:9.00;" x="1361" y="281">do_shopping_list</text>
<polyline style="fill:none;stroke:black;" points="1301,287 1422,287 "/>
<text text-anchor="middle" style="font-family:Verdana;font-size:9.00;" x="1361" y="299">index</text>
</g>
<g id="edge17" class="edge"><title>ApplicationController&#45;&gt;ShoppingListController</title>
<path style="fill:none;stroke:black;" d="M891,80C980,98 1228,61 1301,116 1339,146 1354,203 1358,241"/>
<polygon style="fill:black;stroke:black;" points="1361,241 1359,251 1355,241 1361,241"/>
</g>
<g id="node19" class="node"><title>MenuPlannerController</title>
<polygon style="fill:#ffe8e8;stroke:black;" points="1439,413 1621,413 1621,143 1439,143 1439,413"/>
<text text-anchor="middle" style="font-family:Verdana;font-size:9.00;" x="1530" y="155">MenuPlannerController</text>
<polyline style="fill:none;stroke:black;" points="1439,161 1621,161 "/>
<text text-anchor="middle" style="font-family:Verdana;font-size:9.00;" x="1530" y="173">unschedule_meal</text>
<polyline style="fill:none;stroke:black;" points="1439,179 1621,179 "/>
<text text-anchor="middle" style="font-family:Verdana;font-size:9.00;" x="1530" y="191">delete_single_meal</text>
<polyline style="fill:none;stroke:black;" points="1439,197 1621,197 "/>
<text text-anchor="middle" style="font-family:Verdana;font-size:9.00;" x="1530" y="209">start_new_n_week_menu</text>
<polyline style="fill:none;stroke:black;" points="1439,215 1621,215 "/>
<text text-anchor="middle" style="font-family:Verdana;font-size:9.00;" x="1530" y="227">show_existing_n_week_menus</text>
<polyline style="fill:none;stroke:black;" points="1439,233 1621,233 "/>
<text text-anchor="middle" style="font-family:Verdana;font-size:9.00;" x="1530" y="245">list_all_meals</text>
<polyline style="fill:none;stroke:black;" points="1439,251 1621,251 "/>
<text text-anchor="middle" style="font-family:Verdana;font-size:9.00;" x="1530" y="263">show_n_week_menu</text>
<polyline style="fill:none;stroke:black;" points="1439,269 1621,269 "/>
<text text-anchor="middle" style="font-family:Verdana;font-size:9.00;" x="1530" y="281">drag_n_drop_n_week_menu_planner</text>
<polyline style="fill:none;stroke:black;" points="1439,287 1621,287 "/>
<text text-anchor="middle" style="font-family:Verdana;font-size:9.00;" x="1530" y="299">meal_definition</text>
<polyline style="fill:none;stroke:black;" points="1439,305 1621,305 "/>
<text text-anchor="middle" style="font-family:Verdana;font-size:9.00;" x="1530" y="317">index</text>
<polyline style="fill:none;stroke:black;" points="1439,323 1621,323 "/>
<text text-anchor="middle" style="font-family:Verdana;font-size:9.00;" x="1530" y="335">add_recipe_to_meal</text>
<polyline style="fill:none;stroke:black;" points="1439,341 1621,341 "/>
<text text-anchor="middle" style="font-family:Verdana;font-size:9.00;" x="1530" y="353">edit_n_week_menu</text>
<polyline style="fill:none;stroke:black;" points="1439,359 1621,359 "/>
<text text-anchor="middle" style="font-family:Verdana;font-size:9.00;" x="1530" y="371">show_single_meal</text>
<polyline style="fill:none;stroke:black;" points="1439,377 1621,377 "/>
<text text-anchor="middle" style="font-family:Verdana;font-size:9.00;" x="1530" y="389">schedule_meal_week_day_and_time</text>
<polyline style="fill:none;stroke:black;" points="1439,395 1621,395 "/>
<text text-anchor="middle" style="font-family:Verdana;font-size:9.00;" x="1530" y="407">delete_recipe_from_meal</text>
</g>
<g id="edge19" class="edge"><title>ApplicationController&#45;&gt;MenuPlannerController</title>
<path style="fill:none;stroke:black;" d="M891,80C1011,103 1335,51 1439,116 1447,121 1455,128 1462,135"/>
<polygon style="fill:black;stroke:black;" points="1465,133 1469,143 1460,138 1465,133"/>
</g>
</g>
</svg>
