<?xml version="1.0" encoding="UTF-8" standalone="no"?>
<!DOCTYPE svg PUBLIC "-//W3C//DTD SVG 1.0//EN"
 "http://www.w3.org/TR/2001/REC-SVG-20010904/DTD/svg10.dtd">
<!-- Generated by dot version 2.2.1 (Fri Sep 30 13:22:44 UTC 2005)
     For user: (ammonc) Ammon Christiansen,,,   Title: G    Pages: 1 -->
<svg width="1134pt" height="1146pt"
 viewBox = "-1 -1 1133 1145"
 xmlns="http://www.w3.org/2000/svg">
<g id="graph0" class="graph" style="font-family:Times-Roman;font-size:14.00;">
<title>G</title>
<g id="graph2" class="cluster"><title>cluster_models</title>
<polygon style="fill:white;stroke:none;" points="13,1122 1119,1122 1119,12 13,12 13,1122"/>
<text text-anchor="middle" style="font-family:Verdana;" x="566" y="29">Models</text>
</g>
<g id="node2" class="node"><title>NWeekMenu</title>
<polygon style="fill:#f1ffe8;stroke:black;" points="1013,170 1112,170 1112,44 1013,44 1013,170"/>
<text text-anchor="middle" style="font-family:Verdana;font-size:9.00;" x="1062" y="56">NWeekMenu</text>
<polyline style="fill:none;stroke:black;" points="1013,62 1112,62 "/>
<text text-anchor="middle" style="font-family:Verdana;font-size:9.00;" x="1062" y="74">id (integer)</text>
<polyline style="fill:none;stroke:black;" points="1013,80 1112,80 "/>
<text text-anchor="middle" style="font-family:Verdana;font-size:9.00;" x="1062" y="92">name (string)</text>
<polyline style="fill:none;stroke:black;" points="1013,98 1112,98 "/>
<text text-anchor="middle" style="font-family:Verdana;font-size:9.00;" x="1062" y="110">start_date (string)</text>
<polyline style="fill:none;stroke:black;" points="1013,116 1112,116 "/>
<text text-anchor="middle" style="font-family:Verdana;font-size:9.00;" x="1062" y="128">end_date (string)</text>
<polyline style="fill:none;stroke:black;" points="1013,134 1112,134 "/>
<text text-anchor="middle" style="font-family:Verdana;font-size:9.00;" x="1062" y="146">shared (boolean)</text>
<polyline style="fill:none;stroke:black;" points="1013,152 1112,152 "/>
<text text-anchor="middle" style="font-family:Verdana;font-size:9.00;" x="1062" y="164">user_id (integer)</text>
</g>
<g id="node4" class="node"><title>WeeklyMenu</title>
<polygon style="fill:#f1ffe8;stroke:black;" points="949,321 1086,321 1086,249 949,249 949,321"/>
<text text-anchor="middle" style="font-family:Verdana;font-size:9.00;" x="1017" y="261">WeeklyMenu</text>
<polyline style="fill:none;stroke:black;" points="949,267 1086,267 "/>
<text text-anchor="middle" style="font-family:Verdana;font-size:9.00;" x="1017" y="279">id (integer)</text>
<polyline style="fill:none;stroke:black;" points="949,285 1086,285 "/>
<text text-anchor="middle" style="font-family:Verdana;font-size:9.00;" x="1017" y="297">n_week_menu_id (integer)</text>
<polyline style="fill:none;stroke:black;" points="949,303 1086,303 "/>
<text text-anchor="middle" style="font-family:Verdana;font-size:9.00;" x="1017" y="315">week_number (integer)</text>
</g>
<g id="edge3" class="edge"><title>NWeekMenu&#45;&gt;WeeklyMenu</title>
<path style="fill:none;stroke:black;" d="M1035,170C1033,176 1031,182 1030,188 1026,205 1023,222 1021,239"/>
<polygon style="fill:black;stroke:black;" points="1024,239 1020,249 1018,239 1024,239"/>
<text text-anchor="middle" x="1070" y="201">weekly menus</text>
</g>
<g id="node6" class="node"><title>SingleDayMenu</title>
<polygon style="fill:#f1ffe8;stroke:black;" points="946,472 1080,472 1080,400 946,400 946,472"/>
<text text-anchor="middle" style="font-family:Verdana;font-size:9.00;" x="1013" y="412">SingleDayMenu</text>
<polyline style="fill:none;stroke:black;" points="946,418 1080,418 "/>
<text text-anchor="middle" style="font-family:Verdana;font-size:9.00;" x="1013" y="430">id (integer)</text>
<polyline style="fill:none;stroke:black;" points="946,436 1080,436 "/>
<text text-anchor="middle" style="font-family:Verdana;font-size:9.00;" x="1013" y="448">weekly_menu_id (integer)</text>
<polyline style="fill:none;stroke:black;" points="946,454 1080,454 "/>
<text text-anchor="middle" style="font-family:Verdana;font-size:9.00;" x="1013" y="466">day_of_week (integer)</text>
</g>
<g id="edge5" class="edge"><title>WeeklyMenu&#45;&gt;SingleDayMenu</title>
<path style="fill:none;stroke:black;" d="M1014,321C1014,335 1013,351 1013,366 1013,374 1013,382 1013,390"/>
<polygon style="fill:black;stroke:black;" points="1017,390 1013,400 1010,390 1017,390"/>
<text text-anchor="middle" x="1062" y="379">single day menus</text>
</g>
<g id="node17" class="node"><title>SingleMealMenu</title>
<polygon style="fill:#f1ffe8;stroke:black;" points="887,569 978,569 978,533 887,533 887,569"/>
<text text-anchor="middle" style="font-family:Verdana;font-size:9.00;" x="932" y="545">SingleMealMenu</text>
<polyline style="fill:none;stroke:black;" points="887,551 978,551 "/>
<text text-anchor="middle" style="font-family:Verdana;font-size:9.00;" x="932" y="563">id (integer)</text>
</g>
<g id="edge17" class="edge"><title>SingleDayMenu&#45;&gt;SingleMealMenu</title>
<path style="fill:none;stroke:black;" d="M946,472C927,481 915,474 904,490 897,501 901,514 908,525"/>
<polygon style="fill:black;stroke:black;" points="911,523 914,533 905,527 911,523"/>
<text text-anchor="middle" x="956" y="503">single meal menus</text>
</g>
<g id="node7" class="node"><title>Unit</title>
<polygon style="fill:#f1ffe8;stroke:black;" points="911,143 996,143 996,71 911,71 911,143"/>
<text text-anchor="middle" style="font-family:Verdana;font-size:9.00;" x="953" y="83">Unit</text>
<polyline style="fill:none;stroke:black;" points="911,89 996,89 "/>
<text text-anchor="middle" style="font-family:Verdana;font-size:9.00;" x="953" y="101">id (integer)</text>
<polyline style="fill:none;stroke:black;" points="911,107 996,107 "/>
<text text-anchor="middle" style="font-family:Verdana;font-size:9.00;" x="953" y="119">name (string)</text>
<polyline style="fill:none;stroke:black;" points="911,125 996,125 "/>
<text text-anchor="middle" style="font-family:Verdana;font-size:9.00;" x="953" y="137">abbrev (string)</text>
</g>
<g id="node8" class="node"><title>DishCategory</title>
<polygon style="fill:#f1ffe8;stroke:black;" points="815,134 894,134 894,80 815,80 815,134"/>
<text text-anchor="middle" style="font-family:Verdana;font-size:9.00;" x="854" y="92">DishCategory</text>
<polyline style="fill:none;stroke:black;" points="815,98 894,98 "/>
<text text-anchor="middle" style="font-family:Verdana;font-size:9.00;" x="854" y="110">id (integer)</text>
<polyline style="fill:none;stroke:black;" points="815,116 894,116 "/>
<text text-anchor="middle" style="font-family:Verdana;font-size:9.00;" x="854" y="128">name (string)</text>
</g>
<g id="node9" class="node"><title>Ingredient</title>
<polygon style="fill:#f1ffe8;stroke:black;" points="857,1114 1021,1114 1021,988 857,988 857,1114"/>
<text text-anchor="middle" style="font-family:Verdana;font-size:9.00;" x="939" y="1000">Ingredient</text>
<polyline style="fill:none;stroke:black;" points="857,1006 1021,1006 "/>
<text text-anchor="middle" style="font-family:Verdana;font-size:9.00;" x="939" y="1018">id (integer)</text>
<polyline style="fill:none;stroke:black;" points="857,1024 1021,1024 "/>
<text text-anchor="middle" style="font-family:Verdana;font-size:9.00;" x="939" y="1036">amount (string)</text>
<polyline style="fill:none;stroke:black;" points="857,1042 1021,1042 "/>
<text text-anchor="middle" style="font-family:Verdana;font-size:9.00;" x="939" y="1054">name (string)</text>
<polyline style="fill:none;stroke:black;" points="857,1060 1021,1060 "/>
<text text-anchor="middle" style="font-family:Verdana;font-size:9.00;" x="939" y="1072">unit_id (integer)</text>
<polyline style="fill:none;stroke:black;" points="857,1078 1021,1078 "/>
<text text-anchor="middle" style="font-family:Verdana;font-size:9.00;" x="939" y="1090">ingredient_category_id (integer)</text>
<polyline style="fill:none;stroke:black;" points="857,1096 1021,1096 "/>
<text text-anchor="middle" style="font-family:Verdana;font-size:9.00;" x="939" y="1108">recipe_id (integer)</text>
</g>
<g id="node10" class="node"><title>IngredientCategory</title>
<polygon style="fill:#f1ffe8;stroke:black;" points="977,810 1082,810 1082,756 977,756 977,810"/>
<text text-anchor="middle" style="font-family:Verdana;font-size:9.00;" x="1029" y="768">IngredientCategory</text>
<polyline style="fill:none;stroke:black;" points="977,774 1082,774 "/>
<text text-anchor="middle" style="font-family:Verdana;font-size:9.00;" x="1029" y="786">id (integer)</text>
<polyline style="fill:none;stroke:black;" points="977,792 1082,792 "/>
<text text-anchor="middle" style="font-family:Verdana;font-size:9.00;" x="1029" y="804">name (string)</text>
</g>
<g id="edge7" class="edge"><title>IngredientCategory&#45;&gt;Ingredient</title>
<path style="fill:none;stroke:black;" d="M1026,810C1021,847 1009,916 988,970 987,973 986,976 984,979"/>
<polygon style="fill:black;stroke:black;" points="987,980 980,988 981,977 987,980"/>
<text text-anchor="middle" x="1024" y="967">ingredients</text>
</g>
<g id="node12" class="node"><title>OnHandIngredient</title>
<polygon style="fill:#f1ffe8;stroke:black;" points="697,161 797,161 797,53 697,53 697,161"/>
<text text-anchor="middle" style="font-family:Verdana;font-size:9.00;" x="747" y="65">OnHandIngredient</text>
<polyline style="fill:none;stroke:black;" points="697,71 797,71 "/>
<text text-anchor="middle" style="font-family:Verdana;font-size:9.00;" x="747" y="83">id (integer)</text>
<polyline style="fill:none;stroke:black;" points="697,89 797,89 "/>
<text text-anchor="middle" style="font-family:Verdana;font-size:9.00;" x="747" y="101">user_id (integer)</text>
<polyline style="fill:none;stroke:black;" points="697,107 797,107 "/>
<text text-anchor="middle" style="font-family:Verdana;font-size:9.00;" x="747" y="119">name (string)</text>
<polyline style="fill:none;stroke:black;" points="697,125 797,125 "/>
<text text-anchor="middle" style="font-family:Verdana;font-size:9.00;" x="747" y="137">amount (string)</text>
<polyline style="fill:none;stroke:black;" points="697,143 797,143 "/>
<text text-anchor="middle" style="font-family:Verdana;font-size:9.00;" x="747" y="155">unit_id (integer)</text>
</g>
<g id="node13" class="node"><title>RecipeCategory</title>
<polygon style="fill:#f1ffe8;stroke:black;" points="781,578 869,578 869,524 781,524 781,578"/>
<text text-anchor="middle" style="font-family:Verdana;font-size:9.00;" x="825" y="536">RecipeCategory</text>
<polyline style="fill:none;stroke:black;" points="781,542 869,542 "/>
<text text-anchor="middle" style="font-family:Verdana;font-size:9.00;" x="825" y="554">id (integer)</text>
<polyline style="fill:none;stroke:black;" points="781,560 869,560 "/>
<text text-anchor="middle" style="font-family:Verdana;font-size:9.00;" x="825" y="572">name (string)</text>
</g>
<g id="node15" class="node"><title>Recipe</title>
<polygon style="fill:#f1ffe8;stroke:black;" points="813,936 960,936 960,630 813,630 813,936"/>
<text text-anchor="middle" style="font-family:Verdana;font-size:9.00;" x="886" y="642">Recipe</text>
<polyline style="fill:none;stroke:black;" points="813,648 960,648 "/>
<text text-anchor="middle" style="font-family:Verdana;font-size:9.00;" x="886" y="660">id (integer)</text>
<polyline style="fill:none;stroke:black;" points="813,666 960,666 "/>
<text text-anchor="middle" style="font-family:Verdana;font-size:9.00;" x="886" y="678">name (string)</text>
<polyline style="fill:none;stroke:black;" points="813,684 960,684 "/>
<text text-anchor="middle" style="font-family:Verdana;font-size:9.00;" x="886" y="696">servings (integer)</text>
<polyline style="fill:none;stroke:black;" points="813,702 960,702 "/>
<text text-anchor="middle" style="font-family:Verdana;font-size:9.00;" x="886" y="714">prep_time_hours (integer)</text>
<polyline style="fill:none;stroke:black;" points="813,720 960,720 "/>
<text text-anchor="middle" style="font-family:Verdana;font-size:9.00;" x="886" y="732">prep_time_minutes (integer)</text>
<polyline style="fill:none;stroke:black;" points="813,738 960,738 "/>
<text text-anchor="middle" style="font-family:Verdana;font-size:9.00;" x="886" y="750">cook_time_hours (integer)</text>
<polyline style="fill:none;stroke:black;" points="813,756 960,756 "/>
<text text-anchor="middle" style="font-family:Verdana;font-size:9.00;" x="886" y="768">cook_time_minutes (integer)</text>
<polyline style="fill:none;stroke:black;" points="813,774 960,774 "/>
<text text-anchor="middle" style="font-family:Verdana;font-size:9.00;" x="886" y="786">instructions (text)</text>
<polyline style="fill:none;stroke:black;" points="813,792 960,792 "/>
<text text-anchor="middle" style="font-family:Verdana;font-size:9.00;" x="886" y="804">feedback (text)</text>
<polyline style="fill:none;stroke:black;" points="813,810 960,810 "/>
<text text-anchor="middle" style="font-family:Verdana;font-size:9.00;" x="886" y="822">rating (integer)</text>
<polyline style="fill:none;stroke:black;" points="813,828 960,828 "/>
<text text-anchor="middle" style="font-family:Verdana;font-size:9.00;" x="886" y="840">source (string)</text>
<polyline style="fill:none;stroke:black;" points="813,846 960,846 "/>
<text text-anchor="middle" style="font-family:Verdana;font-size:9.00;" x="886" y="858">added_by_user_id (integer)</text>
<polyline style="fill:none;stroke:black;" points="813,864 960,864 "/>
<text text-anchor="middle" style="font-family:Verdana;font-size:9.00;" x="886" y="876">recipe_category_id (integer)</text>
<polyline style="fill:none;stroke:black;" points="813,882 960,882 "/>
<text text-anchor="middle" style="font-family:Verdana;font-size:9.00;" x="886" y="894">user_id (integer)</text>
<polyline style="fill:none;stroke:black;" points="813,900 960,900 "/>
<text text-anchor="middle" style="font-family:Verdana;font-size:9.00;" x="886" y="912">dish_category_id (integer)</text>
<polyline style="fill:none;stroke:black;" points="813,918 960,918 "/>
<text text-anchor="middle" style="font-family:Verdana;font-size:9.00;" x="886" y="930">shared (boolean)</text>
</g>
<g id="edge9" class="edge"><title>RecipeCategory&#45;&gt;Recipe</title>
<path style="fill:none;stroke:black;" d="M828,578C830,589 832,601 834,612 834,615 835,617 836,620"/>
<polygon style="fill:black;stroke:black;" points="839,620 838,630 833,621 839,620"/>
<text text-anchor="middle" x="854" y="609">recipes</text>
</g>
<g id="edge13" class="edge"><title>Recipe&#45;&gt;Ingredient</title>
<path style="fill:none;stroke:black;" d="M916,936C919,950 922,965 924,978"/>
<polygon style="fill:black;stroke:black;" points="927,978 926,988 921,979 927,978"/>
<text text-anchor="middle" x="952" y="967">ingredients</text>
</g>
<g id="edge11" class="edge"><title>Recipe&#45;&gt;SingleMealMenu</title>
<path style="fill:none;stroke:black;" d="M928,630C929,624 930,618 931,612 933,601 933,590 933,579"/>
<polygon style="fill:black;stroke:black;" points="930,579 933,569 937,579 930,579"/>
<text text-anchor="middle" x="983" y="609">single meal menus</text>
</g>
<g id="edge21" class="edge"><title>SingleMealMenu&#45;&gt;SingleDayMenu</title>
<path style="fill:none;stroke:black;" d="M963,533C982,522 1003,509 1005,506 1009,499 1012,491 1014,482"/>
<polygon style="fill:black;stroke:black;" points="1011,482 1015,472 1017,482 1011,482"/>
<text text-anchor="middle" x="1060" y="503">single day menus</text>
</g>
<g id="edge19" class="edge"><title>SingleMealMenu&#45;&gt;Recipe</title>
<path style="fill:none;stroke:black;" d="M907,569C899,576 890,586 886,596 882,604 880,612 878,620"/>
<polygon style="fill:black;stroke:black;" points="881,621 876,630 875,620 881,621"/>
<text text-anchor="middle" x="906" y="609">recipes</text>
</g>
<g id="node19" class="node"><title>RecipesSingleMealMenus</title>
<polygon style="fill:#f1ffe8;stroke:black;" points="523,152 680,152 680,62 523,62 523,152"/>
<text text-anchor="middle" style="font-family:Verdana;font-size:9.00;" x="601" y="74">RecipesSingleMealMenus</text>
<polyline style="fill:none;stroke:black;" points="523,80 680,80 "/>
<text text-anchor="middle" style="font-family:Verdana;font-size:9.00;" x="601" y="92">id (integer)</text>
<polyline style="fill:none;stroke:black;" points="523,98 680,98 "/>
<text text-anchor="middle" style="font-family:Verdana;font-size:9.00;" x="601" y="110">recipe_id (integer)</text>
<polyline style="fill:none;stroke:black;" points="523,116 680,116 "/>
<text text-anchor="middle" style="font-family:Verdana;font-size:9.00;" x="601" y="128">single_meal_menu_id (integer)</text>
<polyline style="fill:none;stroke:black;" points="523,134 680,134 "/>
<text text-anchor="middle" style="font-family:Verdana;font-size:9.00;" x="601" y="146">servings (float)</text>
</g>
<g id="node20" class="node"><title>ShoppingListItem</title>
<polygon style="fill:#f1ffe8;stroke:black;" points="359,348 523,348 523,222 359,222 359,348"/>
<text text-anchor="middle" style="font-family:Verdana;font-size:9.00;" x="441" y="234">ShoppingListItem</text>
<polyline style="fill:none;stroke:black;" points="359,240 523,240 "/>
<text text-anchor="middle" style="font-family:Verdana;font-size:9.00;" x="441" y="252">id (integer)</text>
<polyline style="fill:none;stroke:black;" points="359,258 523,258 "/>
<text text-anchor="middle" style="font-family:Verdana;font-size:9.00;" x="441" y="270">shopping_list_id (integer)</text>
<polyline style="fill:none;stroke:black;" points="359,276 523,276 "/>
<text text-anchor="middle" style="font-family:Verdana;font-size:9.00;" x="441" y="288">name (string)</text>
<polyline style="fill:none;stroke:black;" points="359,294 523,294 "/>
<text text-anchor="middle" style="font-family:Verdana;font-size:9.00;" x="441" y="306">amount (string)</text>
<polyline style="fill:none;stroke:black;" points="359,312 523,312 "/>
<text text-anchor="middle" style="font-family:Verdana;font-size:9.00;" x="441" y="324">unit_id (integer)</text>
<polyline style="fill:none;stroke:black;" points="359,330 523,330 "/>
<text text-anchor="middle" style="font-family:Verdana;font-size:9.00;" x="441" y="342">ingredient_category_id (integer)</text>
</g>
<g id="node21" class="node"><title>ShoppingList</title>
<polygon style="fill:#f1ffe8;stroke:black;" points="377,152 506,152 506,62 377,62 377,152"/>
<text text-anchor="middle" style="font-family:Verdana;font-size:9.00;" x="441" y="74">ShoppingList</text>
<polyline style="fill:none;stroke:black;" points="377,80 506,80 "/>
<text text-anchor="middle" style="font-family:Verdana;font-size:9.00;" x="441" y="92">id (integer)</text>
<polyline style="fill:none;stroke:black;" points="377,98 506,98 "/>
<text text-anchor="middle" style="font-family:Verdana;font-size:9.00;" x="441" y="110">user_id (string)</text>
<polyline style="fill:none;stroke:black;" points="377,116 506,116 "/>
<text text-anchor="middle" style="font-family:Verdana;font-size:9.00;" x="441" y="128">created (datetime)</text>
<polyline style="fill:none;stroke:black;" points="377,134 506,134 "/>
<text text-anchor="middle" style="font-family:Verdana;font-size:9.00;" x="441" y="146">last_modified (datetime)</text>
</g>
<g id="edge15" class="edge"><title>ShoppingList&#45;&gt;ShoppingListItem</title>
<path style="fill:none;stroke:black;" d="M441,152C441,170 441,192 441,212"/>
<polygon style="fill:black;stroke:black;" points="445,212 441,222 438,212 445,212"/>
<text text-anchor="middle" x="494" y="201">shopping list items</text>
</g>
<g id="node24" class="node"><title>SingleDayMenusSingleMealMenu</title>
<polygon style="fill:#f1ffe8;stroke:black;" points="193,152 360,152 360,62 193,62 193,152"/>
<text text-anchor="middle" style="font-family:Verdana;font-size:9.00;" x="276" y="74">SingleDayMenusSingleMealMenu</text>
<polyline style="fill:none;stroke:black;" points="193,80 360,80 "/>
<text text-anchor="middle" style="font-family:Verdana;font-size:9.00;" x="276" y="92">id (integer)</text>
<polyline style="fill:none;stroke:black;" points="193,98 360,98 "/>
<text text-anchor="middle" style="font-family:Verdana;font-size:9.00;" x="276" y="110">single_day_menu_id (integer)</text>
<polyline style="fill:none;stroke:black;" points="193,116 360,116 "/>
<text text-anchor="middle" style="font-family:Verdana;font-size:9.00;" x="276" y="128">meal_of_day_number (integer)</text>
<polyline style="fill:none;stroke:black;" points="193,134 360,134 "/>
<text text-anchor="middle" style="font-family:Verdana;font-size:9.00;" x="276" y="146">single_meal_menu_id (integer)</text>
</g>
<g id="node27" class="node"><title>UnitConversion</title>
<polygon style="fill:#f1ffe8;stroke:black;" points="21,152 176,152 176,62 21,62 21,152"/>
<text text-anchor="middle" style="font-family:Verdana;font-size:9.00;" x="98" y="74">UnitConversion</text>
<polyline style="fill:none;stroke:black;" points="21,80 176,80 "/>
<text text-anchor="middle" style="font-family:Verdana;font-size:9.00;" x="98" y="92">id (integer)</text>
<polyline style="fill:none;stroke:black;" points="21,98 176,98 "/>
<text text-anchor="middle" style="font-family:Verdana;font-size:9.00;" x="98" y="110">larger_unit_id (integer)</text>
<polyline style="fill:none;stroke:black;" points="21,116 176,116 "/>
<text text-anchor="middle" style="font-family:Verdana;font-size:9.00;" x="98" y="128">smaller_unit_id (integer)</text>
<polyline style="fill:none;stroke:black;" points="21,134 176,134 "/>
<text text-anchor="middle" style="font-family:Verdana;font-size:9.00;" x="98" y="146">smaller_unit_amount (integer)</text>
</g>
</g>
</svg>
